<?xml version="1.0" standalone="no"?>
<!DOCTYPE svg PUBLIC "-//W3C//DTD SVG 20010904//EN"
 "http://www.w3.org/TR/2001/REC-SVG-20010904/DTD/svg10.dtd">
<svg version="1.0" xmlns="http://www.w3.org/2000/svg"
 width="512.000000pt" height="512.000000pt" viewBox="0 0 512.000000 512.000000"
 preserveAspectRatio="xMidYMid meet">
<metadata>
Created by potrace 1.16, written by Peter Selinger 2001-2019
</metadata>
<g transform="translate(0.000000,512.000000) scale(0.100000,-0.100000)"
fill="#000000" stroke="none">
<path d="M2410 4938 l0 -182 -68 67 -67 67 -110 -110 -110 -110 178 -178 177
-177 0 -217 0 -217 -335 337 -334 337 -1 -475 0 -475 -160 160 -160 160 0 242
0 243 -155 0 -155 0 0 -87 0 -88 -125 125 -125 125 -112 -113 -113 -112 125
-125 125 -125 -88 0 -87 0 0 -155 0 -155 243 0 242 0 160 -160 160 -160 -475
0 -475 0 337 -335 336 -335 -216 0 -217 0 -177 177 -178 178 -110 -110 -110
-110 67 -67 67 -68 -182 0 -182 0 0 -150 0 -150 182 0 182 0 -67 -68 -67 -67
110 -110 110 -110 178 178 177 177 217 0 217 0 -337 -335 -337 -334 475 -1
475 0 -160 -160 -160 -160 -242 0 -243 0 0 -155 0 -155 87 0 88 0 -125 -125
-125 -125 113 -112 112 -113 125 125 125 125 0 -88 0 -87 155 0 155 0 0 243 0
242 160 160 160 160 0 -475 0 -475 335 335 335 335 0 -215 0 -215 -177 -177
-178 -178 110 -110 110 -110 67 67 68 67 0 -182 0 -182 150 0 150 0 0 182 0
182 68 -67 67 -67 110 110 110 110 -178 178 -177 177 0 215 0 215 335 -335
335 -335 0 475 0 475 160 -160 160 -160 0 -242 0 -243 155 0 155 0 0 87 0 88
125 -125 125 -125 112 113 113 112 -125 125 -125 125 88 0 87 0 0 155 0 155
-243 0 -242 0 -160 160 -160 160 475 0 475 0 -337 335 -336 335 216 0 217 0
177 -177 178 -178 110 110 110 110 -67 67 -67 68 182 0 182 0 0 150 0 150
-182 0 -182 0 67 68 67 67 -110 110 -110 110 -178 -178 -177 -177 -217 0 -217
0 337 335 337 334 -475 1 -475 0 160 160 160 160 242 0 243 0 0 155 0 155 -87
0 -88 0 125 125 125 125 -113 112 -112 113 -125 -125 -125 -125 0 88 0 87
-155 0 -155 0 0 -243 0 -242 -160 -160 -160 -160 0 475 -1 475 -334 -337 -335
-337 0 217 0 217 177 177 178 178 -110 110 -110 110 -67 -67 -68 -67 0 182 0
182 -150 0 -150 0 0 -182z m225 -1148 l75 74 0 -367 c0 -287 3 -367 13 -367 6
0 41 -14 76 -30 l65 -31 258 258 258 258 0 -103 0 -102 102 0 103 0 -258 -258
-258 -258 31 -65 c16 -35 30 -70 30 -76 0 -10 80 -13 367 -13 l367 0 -74 -75
-74 -75 74 -75 74 -75 -367 0 c-287 0 -367 -3 -367 -12 0 -7 -14 -42 -30 -77
l-31 -65 258 -258 258 -258 -103 0 -102 0 0 -102 0 -103 -258 258 -258 258
-65 -31 c-35 -16 -70 -30 -76 -30 -10 0 -13 -80 -13 -367 l0 -367 -75 74 -75
74 -75 -74 -75 -74 0 367 c0 287 -3 367 -12 367 -7 0 -42 14 -77 30 l-65 31
-258 -258 -258 -258 0 103 0 102 -102 0 -103 0 258 258 258 258 -31 65 c-16
35 -30 70 -30 77 0 9 -80 12 -367 12 l-367 0 74 75 74 75 -74 75 -74 75 367 0
c287 0 367 3 367 13 0 6 14 41 30 76 l31 65 -258 258 -258 258 103 0 102 0 0
102 0 103 258 -258 258 -258 65 31 c35 16 70 30 77 30 9 0 12 80 12 367 l0
367 75 -74 75 -74 75 74z"/>
<path d="M2434 2836 c-112 -52 -174 -151 -174 -276 0 -176 124 -300 300 -300
176 0 300 124 300 300 0 176 -124 300 -300 300 -58 0 -87 -6 -126 -24z"/>
</g>
</svg>
