<?xml version="1.0" standalone="no"?>
<!DOCTYPE svg PUBLIC "-//W3C//DTD SVG 20010904//EN"
 "http://www.w3.org/TR/2001/REC-SVG-20010904/DTD/svg10.dtd">
<svg version="1.0" xmlns="http://www.w3.org/2000/svg"
 width="512.000000pt" height="512.000000pt" viewBox="0 0 512.000000 512.000000"
 preserveAspectRatio="xMidYMid meet">
<metadata>
Created by potrace 1.16, written by Peter Selinger 2001-2019
</metadata>
<g transform="translate(0.000000,512.000000) scale(0.100000,-0.100000)"
fill="#000000" stroke="none">
<path d="M2410 4938 l0 -182 -68 67 -67 67 -110 -110 -110 -110 178 -178 177
-177 0 -217 0 -217 -335 337 -334 337 -1 -475 0 -475 -160 160 -160 160 0 242
0 243 -155 0 -155 0 0 -87 0 -88 -125 125 -125 125 -112 -113 -113 -112 125
-125 125 -125 -88 0 -87 0 0 -155 0 -155 243 0 242 0 160 -160 160 -160 -475
0 -475 -1 337 -334 337 -335 -217 0 -217 0 -177 177 -178 178 -110 -110 -110
-110 67 -67 67 -68 -182 0 -182 0 0 -150 0 -150 182 0 182 0 -67 -68 -67 -67
110 -110 110 -110 178 178 177 177 217 0 217 0 -337 -335 -337 -334 475 -1
475 0 -160 -160 -160 -160 -242 0 -243 0 0 -155 0 -155 87 0 88 0 -125 -125
-125 -125 113 -112 112 -113 125 125 125 125 0 -88 0 -87 155 0 155 0 0 243 0
242 160 160 160 160 0 -475 0 -475 335 335 335 335 0 -215 0 -215 -177 -177
-178 -178 110 -110 110 -110 67 67 68 67 0 -182 0 -182 150 0 150 0 0 182 0
182 68 -67 67 -67 110 110 110 110 -178 178 -177 177 0 215 0 215 335 -335
335 -335 0 475 0 475 160 -160 160 -160 0 -242 0 -243 155 0 155 0 0 87 0 88
125 -125 125 -125 112 113 113 112 -125 125 -125 125 88 0 87 0 0 155 0 155
-243 0 -242 0 -160 160 -160 160 475 0 475 1 -337 334 -337 335 217 0 217 0
177 -177 178 -178 110 110 110 110 -67 67 -67 68 182 0 182 0 0 150 0 150
-182 0 -182 0 67 68 67 67 -110 110 -110 110 -178 -178 -177 -177 -217 0 -217
0 337 335 337 334 -475 1 -475 0 160 160 160 160 242 0 243 0 0 155 0 155 -87
0 -88 0 125 125 125 125 -113 112 -112 113 -125 -125 -125 -125 0 88 0 87
-155 0 -155 0 0 -243 0 -242 -160 -160 -160 -160 0 475 -1 475 -334 -337 -335
-337 0 217 0 217 177 177 178 178 -110 110 -110 110 -67 -67 -68 -67 0 182 0
182 -150 0 -150 0 0 -182z m0 -1646 c0 -127 -2 -143 -17 -149 -10 -3 -44 -17
-76 -31 l-58 -25 -110 109 -109 109 0 250 0 250 185 -185 185 -185 0 -143z
m561 -96 l-110 -109 -58 25 c-32 14 -66 28 -75 31 -16 6 -18 22 -18 149 l0
143 183 183 182 182 3 -247 2 -248 -109 -109z m-1047 -225 l109 -110 -25 -58
c-14 -32 -28 -66 -31 -75 -6 -16 -22 -18 -149 -18 l-143 0 -185 185 -185 185
250 0 250 0 109 -109z m1696 -76 l-185 -185 -143 0 c-127 0 -143 2 -149 18 -3
9 -17 43 -31 75 l-25 58 109 110 109 109 250 0 250 0 -185 -185z m-945 -69
c73 -34 110 -69 144 -138 73 -146 17 -314 -131 -387 -193 -97 -418 42 -418
259 0 115 58 207 162 259 80 40 167 43 243 7z m-698 -433 c3 -10 17 -44 31
-76 l25 -58 -109 -110 -109 -109 -250 0 -250 0 185 185 185 185 143 0 c127 0
143 -2 149 -17z m1643 -168 l185 -185 -250 0 -250 0 -109 109 -109 110 25 58
c14 32 28 66 31 76 6 15 22 17 149 17 l143 0 185 -185z m-1275 -229 l60 -25 3
-143 2 -143 -185 -185 -185 -185 0 250 0 250 108 108 c66 67 113 106 122 103
8 -2 42 -16 75 -30z m627 -73 l108 -108 0 -250 0 -250 -185 185 -185 185 0
143 c0 132 2 144 19 149 10 2 40 15 67 28 27 13 53 24 59 24 5 1 58 -47 117
-106z"/>
</g>
</svg>
