<?xml version="1.0" encoding="iso-8859-1"?>
<!-- Uploaded to: SVG Repo, www.svgrepo.com, Generator: SVG Repo Mixer Tools -->
<!DOCTYPE svg PUBLIC "-//W3C//DTD SVG 1.1//EN" "http://www.w3.org/Graphics/SVG/1.1/DTD/svg11.dtd">
<svg fill="#000000" height="800px" width="800px" version="1.1" id="Capa_1" xmlns="http://www.w3.org/2000/svg" xmlns:xlink="http://www.w3.org/1999/xlink" 
	 viewBox="0 0 296.749 296.749" xml:space="preserve">
<path d="M290.121,132.515c-4.25-4.252-9.9-6.515-15.911-6.515h-0.002c-6.013,0-11.663,2.258-15.912,6.508
	c-2.44,2.44-4.226,5.338-5.324,8.492h-19.952l8.105-8.105c2.929-2.93,2.929-7.678,0-10.607c-2.93-2.928-7.678-2.928-10.607,0
	L211.804,141h-21.797l-7.636-15.87l16.13-16.13h27.372c4.143,0,7.5-3.357,7.5-7.5s-3.357-7.5-7.5-7.5h-12.372l14.242-14.242
	c2.945,1.381,6.174,2.133,9.524,2.133c6.009,0,11.658-2.34,15.908-6.589c8.774-8.778,8.771-23.051,0.002-31.82
	c-4.244-4.249-9.896-6.592-15.91-6.592h-0.001c-6.011,0-11.661,2.342-15.911,6.593c-4.247,4.246-6.589,9.896-6.588,15.908
	c0,3.473,0.637,6.814,2.117,9.845L202.54,83.413V72c0-4.143-3.357-7.5-7.5-7.5c-4.143,0-7.5,3.357-7.5,7.5v26.413l-15.868,15.868
	l-16.132-6.565V85.575l19.47-19.305c2.929-2.929,3.012-7.678,0.082-10.606c-2.928-2.928-7.802-2.929-10.731,0.001l-8.821,8.696
	V43.71c9-3.097,15.167-11.433,15.167-21.21c0-12.406-10.01-22.5-22.417-22.5c-12.406,0-22.625,10.094-22.625,22.5
	c0,9.777,6.875,18.113,14.875,21.21v20.651l-8.53-8.696c-2.929-2.929-7.594-2.93-10.523-0.001c-2.93,2.929-3.055,7.678-0.126,10.606
	l19.179,19.305v20.955l-17.049,6.647L108.54,98.226V71c0-4.143-3.357-7.5-7.5-7.5s-7.5,3.357-7.5,7.5v12.226L79.515,69.033
	c3.978-8.361,2.618-18.677-4.292-25.587c-4.25-4.25-9.859-6.591-15.868-6.591c-6.011,0-11.64,2.341-15.89,6.593
	c-4.247,4.245-6.577,9.896-6.578,15.906c0,6.011,2.346,11.661,6.596,15.911c4.249,4.25,9.902,6.59,15.912,6.59
	c3.412,0,6.698-0.778,9.687-2.207L83.433,94h-11.56c-4.143,0-7.5,3.357-7.5,7.5s3.357,7.5,7.5,7.5h26.56l14.248,14.248L105.384,141
	H85.18l-19.419-19.419c-2.93-2.928-7.678-2.928-10.607,0c-2.929,2.93-2.929,7.678,0,10.607L63.965,141H43.806
	c-3.05-8.815-11.428-15.166-21.265-15.166c-6.01,0-11.66,2.34-15.91,6.589c-4.251,4.25-6.591,9.901-6.59,15.914
	C0.04,154.34,2.38,159.991,6.63,164.242c4.25,4.25,9.9,6.591,15.911,6.591c9.715,0,18.011-6.19,21.153-14.833H63.87l-8.009,8.009
	c-2.929,2.929-2.929,7.678,0.001,10.606c1.464,1.464,3.384,2.196,5.303,2.196c1.919,0,3.839-0.732,5.304-2.197L85.081,156h20.532
	l6.792,17.881L98.287,188H70.873c-4.143,0-7.5,3.357-7.5,7.5s3.357,7.5,7.5,7.5h12.413l-14.13,14.13
	c-3.031-1.479-6.372-2.283-9.843-2.283h-0.001c-6.01,0-11.66,2.341-15.909,6.59c-4.25,4.25-6.591,9.899-6.591,15.908
	c-0.001,6.013,2.341,11.664,6.595,15.914c4.242,4.245,9.893,6.587,15.905,6.587c6.01,0,11.66-2.341,15.91-6.591
	c4.25-4.249,6.59-9.899,6.59-15.91c0-3.351-0.918-6.578-2.298-9.524l14.026-14.192V225c0,4.143,3.357,7.5,7.5,7.5s7.5-3.357,7.5-7.5
	v-26.372l14.754-14.754l17.246,7.457v20.6l-19.085,19.252c-2.929,2.93-2.845,7.678,0.083,10.607
	c1.465,1.464,3.426,2.196,5.345,2.196c1.919,0,3.693-0.732,5.158-2.196l8.499-8.645v20.125c-8,3.052-14.832,11.284-14.832,21.062
	c0,12.406,10.176,22.417,22.581,22.417c12.409,0,22.377-9.969,22.377-22.375c0-9.777-6.126-18.036-15.126-21.099v-20.366l8.34,8.174
	c1.465,1.464,3.468,2.196,5.387,2.196c1.919,0,3.881-0.732,5.345-2.196c2.929-2.93,2.783-7.678-0.146-10.607l-18.927-18.781v-21.496
	l16.72-7.038l15.28,15.28V226c0,4.143,3.357,7.5,7.5,7.5c4.143,0,7.5-3.357,7.5-7.5v-12.56l14.352,14.186
	c-1.429,2.988-2.125,6.272-2.125,9.684c0,6.009,2.383,11.659,6.633,15.909c4.252,4.251,9.922,6.59,15.931,6.59
	c6.01,0,11.67-2.34,15.919-6.589c4.248-4.244,6.596-9.896,6.597-15.909c0-6.012-2.338-11.663-6.59-15.913
	c-4.245-4.247-9.894-6.588-15.905-6.588h0c-3.412,0-6.696,0.778-9.685,2.208L213.648,203h11.226c4.143,0,7.5-3.357,7.5-7.5
	s-3.357-7.5-7.5-7.5h-26.226l-15.87-15.87L189.89,156h22.013l19.32,19.321c1.465,1.465,3.384,2.197,5.304,2.197
	c1.919,0,3.839-0.732,5.303-2.196c2.93-2.929,2.93-7.678,0.001-10.606L233.115,156h19.926c3.131,8.656,11.436,14.854,21.167,14.854
	c12.408-0.003,22.5-10.105,22.5-22.509C296.71,142.34,294.371,136.766,290.121,132.515z M167.809,168.899l-20.785,8.749
	l-20.51-8.868l-7.843-20.65l8.243-20.059l20.01-7.801l20.471,8.329l9.488,19.721L167.809,168.899z"/>
</svg>