<?xml version="1.0" standalone="no"?>
<!DOCTYPE svg PUBLIC "-//W3C//DTD SVG 20010904//EN"
 "http://www.w3.org/TR/2001/REC-SVG-20010904/DTD/svg10.dtd">
<svg version="1.0" xmlns="http://www.w3.org/2000/svg"
 width="600.000000pt" height="600.000000pt" viewBox="0 0 600.000000 600.000000"
 preserveAspectRatio="xMidYMid meet">
<metadata>
Created by potrace 1.16, written by Peter Selinger 2001-2019
</metadata>
<g transform="translate(0.000000,600.000000) scale(0.100000,-0.100000)"
fill="#000000" stroke="none">
<path d="M2703 5589 l-283 -161 0 -153 0 -153 53 -6 c28 -3 106 -8 172 -11 66
-4 129 -8 141 -10 23 -5 23 5 8 -177 l-6 -78 -150 0 -151 0 -118 -87 c-65 -49
-117 -91 -116 -95 1 -3 53 -45 114 -92 l113 -86 145 0 145 0 0 -64 0 -63 -101
-6 c-55 -3 -103 -8 -106 -10 -3 -3 -2 -58 2 -121 l7 -115 92 -3 91 -3 3 -72 3
-72 -208 99 c-114 54 -209 97 -211 95 -1 -1 -12 -101 -23 -221 -11 -120 -22
-220 -24 -222 -5 -5 -115 45 -115 53 0 3 18 42 41 86 22 45 37 85 32 89 -4 5
-48 33 -97 64 l-90 56 -58 -90 c-31 -50 -60 -90 -63 -90 -11 0 -105 65 -105
73 0 4 29 59 64 121 l65 113 -6 152 c-4 102 -10 151 -17 151 -7 0 -72 -24
-146 -54 l-135 -53 -72 -124 c-41 -70 -78 -123 -85 -121 -12 3 -209 92 -217
98 -1 1 33 72 78 157 45 85 81 157 81 160 0 5 -248 153 -266 159 -6 2 -138
-69 -292 -157 l-281 -160 -1 -317 c0 -174 -3 -323 -6 -331 -4 -11 30 -35 127
-88 73 -41 136 -75 139 -77 4 -1 51 65 106 147 54 83 102 151 105 151 9 0 209
-111 214 -119 2 -4 -31 -66 -74 -138 l-79 -130 14 -119 c7 -66 13 -129 14
-141 0 -13 5 -23 12 -23 6 0 73 24 148 53 l137 52 67 128 c37 70 72 127 76
127 18 0 120 -54 120 -63 0 -5 -23 -49 -51 -98 -29 -49 -50 -92 -47 -94 2 -3
51 -32 108 -65 l104 -59 49 92 c28 50 51 93 52 95 1 1 33 -15 70 -36 l67 -39
-196 -143 c-108 -78 -196 -146 -196 -149 0 -4 88 -71 196 -150 l195 -143 -67
-39 c-37 -22 -68 -38 -69 -37 -1 2 -23 44 -50 93 -26 50 -49 91 -50 93 -2 2
-205 -115 -214 -124 -2 -2 19 -44 48 -94 28 -49 51 -93 51 -98 0 -8 -104 -62
-120 -62 -4 0 -39 58 -76 128 l-67 128 -137 52 c-75 29 -141 52 -148 52 -7 0
-12 -10 -12 -22 -1 -13 -7 -76 -14 -142 l-14 -119 79 -131 c91 -151 97 -129
-50 -208 -55 -30 -96 -46 -100 -41 -77 121 -196 293 -201 291 -3 -2 -65 -36
-136 -77 l-129 -73 3 -327 c2 -239 6 -329 15 -337 7 -6 125 -76 262 -154 138
-79 259 -149 270 -156 18 -12 34 -5 149 61 71 40 133 78 138 83 6 6 -22 69
-73 166 -44 86 -80 158 -78 160 9 8 202 96 215 98 9 2 41 -42 87 -121 l72
-124 135 -53 c74 -30 139 -54 146 -54 7 0 13 49 17 151 l6 152 -65 113 c-35
62 -64 117 -64 122 0 10 96 72 111 72 5 0 9 -3 9 -7 0 -5 24 -45 53 -90 l53
-82 89 55 c50 31 94 59 98 64 5 4 -10 44 -33 89 -22 45 -39 85 -36 89 7 11
105 56 110 51 3 -2 14 -103 25 -223 11 -120 22 -220 23 -221 2 -1 96 42 211
95 l207 98 0 -74 0 -74 -94 0 -93 0 -7 -92 c-3 -50 -6 -106 -6 -125 l0 -33
105 0 105 0 0 -59 c0 -72 3 -71 -168 -71 l-123 0 -112 -86 c-62 -47 -113 -89
-114 -92 -2 -7 109 -92 200 -155 39 -26 43 -27 188 -27 l147 0 6 -78 c15 -188
17 -171 -18 -176 -35 -6 -299 -26 -334 -26 -22 0 -22 -2 -22 -153 l0 -154 284
-161 c157 -89 290 -162 296 -162 6 0 139 73 296 162 l284 161 0 154 c0 151 0
153 -22 153 -35 0 -299 20 -334 26 -35 5 -33 -12 -18 177 l6 77 147 0 c145 0
149 1 188 28 91 62 202 147 200 154 -1 3 -52 45 -114 92 l-112 86 -123 0
c-171 0 -168 -1 -168 71 l0 59 106 0 c105 0 106 0 100 23 -3 12 -6 68 -6 125
l0 102 -94 0 -93 0 -7 71 c-4 39 -6 72 -4 74 2 2 98 -41 213 -95 126 -59 211
-94 212 -87 1 7 12 107 23 222 12 116 24 212 26 214 5 5 103 -40 110 -51 3 -4
-13 -43 -36 -87 -22 -44 -40 -83 -40 -85 0 -4 115 -77 186 -119 6 -3 33 33 63
84 29 49 56 89 59 89 12 0 112 -65 112 -73 0 -4 -29 -60 -65 -123 l-66 -116 7
-149 c4 -82 10 -149 15 -149 4 0 70 24 146 53 l138 54 72 124 c46 79 78 123
87 121 13 -2 206 -90 215 -98 2 -2 -34 -74 -78 -160 -51 -97 -79 -160 -73
-166 5 -5 67 -43 138 -83 115 -66 131 -73 149 -61 11 7 133 77 270 156 138 78
255 148 262 154 9 8 13 98 15 337 l3 327 -129 73 c-71 41 -133 75 -136 77 -5
2 -124 -170 -201 -291 -4 -5 -45 11 -100 41 -147 80 -141 57 -53 207 l76 130
-12 143 c-8 87 -17 142 -23 142 -6 0 -72 -23 -147 -52 l-137 -52 -67 -128
c-37 -70 -71 -128 -76 -128 -9 0 -121 47 -127 54 -2 2 22 47 53 100 31 53 55
99 53 101 -9 8 -212 125 -214 123 -1 -2 -24 -43 -50 -93 -27 -49 -49 -91 -50
-93 -1 -1 -32 15 -69 37 l-67 39 195 143 c108 79 196 146 196 150 0 3 -88 71
-196 149 l-196 143 67 39 c37 21 69 37 70 36 1 -2 24 -45 52 -95 l49 -92 104
59 c57 33 106 62 108 65 4 4 -51 103 -95 172 -14 21 -12 23 46 52 33 17 65 31
70 31 5 0 40 -57 77 -127 l67 -128 137 -52 c75 -29 142 -53 147 -53 6 0 16 60
23 143 l12 142 -75 129 c-42 72 -74 133 -71 137 5 8 204 119 213 119 3 0 51
-68 105 -151 55 -82 102 -148 106 -147 3 2 66 36 139 77 97 53 131 77 127 88
-3 8 -6 157 -6 331 l-1 317 -281 160 c-154 88 -286 159 -292 157 -18 -6 -266
-154 -266 -159 0 -3 36 -75 81 -160 45 -85 79 -156 78 -157 -8 -6 -205 -95
-217 -98 -7 -2 -44 51 -85 121 l-72 124 -135 53 c-74 29 -140 53 -146 54 -7 0
-13 -51 -18 -149 l-7 -149 66 -116 c36 -63 65 -119 65 -123 0 -9 -109 -77
-115 -71 -2 1 -27 41 -55 88 -29 47 -53 86 -55 87 -2 3 -176 -105 -188 -117
-5 -4 10 -44 32 -89 23 -44 41 -83 41 -86 0 -7 -110 -58 -115 -54 -1 2 -13 99
-24 214 -12 116 -23 216 -24 222 -1 8 -81 -25 -212 -86 -232 -110 -222 -109
-208 -11 l8 55 92 3 92 3 3 117 c2 64 2 118 2 120 -1 1 -47 5 -103 9 l-101 6
0 64 0 63 145 0 145 0 113 86 c61 47 113 89 114 92 1 4 -51 46 -116 95 l-118
87 -151 0 -150 0 -6 78 c-15 182 -15 172 8 177 12 2 75 6 141 10 66 3 144 8
173 11 l52 6 0 153 0 153 -284 161 c-156 89 -290 161 -297 161 -8 0 -141 -73
-296 -161z"/>
</g>
</svg>
